<svg width="54" height="56" viewBox="0 0 54 56" fill="none" xmlns="http://www.w3.org/2000/svg">
<rect x="1" y="1" width="52" height="54" rx="26" stroke="white" stroke-width="2"/>
<path d="M28.1754 33.8775C28.4797 33.5571 28.4365 33.0893 28.1473 32.7841L24.2757 29.32L33.2415 29.0895C33.6789 29.0782 33.9824 28.7266 33.972 28.3204L33.9463 27.3208C33.935 26.8834 33.6146 26.579 33.1772 26.5903L24.2115 26.8208L27.8991 23.131C28.1722 22.8114 28.1602 22.3428 27.871 22.0377L27.166 21.3681C26.8464 21.0949 26.3778 21.107 26.1039 21.3954L20.1688 27.6437C19.8948 27.9321 19.9069 28.4007 20.1961 28.7059L26.4436 34.6097C26.732 34.8837 27.2006 34.8716 27.5058 34.5824L28.1754 33.8775Z" fill="white"/>
</svg>
